<?xml version="1.0" standalone="no"?>
<!DOCTYPE svg PUBLIC "-//W3C//DTD SVG 20010904//EN"
 "http://www.w3.org/TR/2001/REC-SVG-20010904/DTD/svg10.dtd">
<svg version="1.0" xmlns="http://www.w3.org/2000/svg"
 width="957.000000pt" height="371.000000pt" viewBox="0 0 957.000000 371.000000"
 preserveAspectRatio="xMidYMid meet">

<g transform="translate(0.000000,371.000000) scale(0.100000,-0.100000)"
fill="#2449a4" stroke="none">
<path d="M3202 1873 l3 -1738 1095 0 c1022 0 1101 1 1180 18 398 86 675 344
769 717 69 275 7 621 -153 843 -58 82 -177 195 -248 237 l-57 34 47 28 c75 44
167 143 211 227 54 104 81 212 88 351 7 146 -9 267 -51 392 -46 134 -86 197
-196 309 -131 133 -254 203 -465 264 -188 54 -204 55 -1255 55 l-970 0 2
-1737z m1858 1143 c144 -47 240 -126 280 -232 32 -82 32 -224 1 -306 -27 -71
-98 -151 -162 -184 -103 -52 -130 -54 -726 -54 l-553 0 0 401 0 400 553 -3
c500 -3 557 -5 607 -22z m40 -1361 c108 -28 224 -89 284 -149 115 -115 151
-286 101 -475 -28 -108 -102 -194 -216 -249 -136 -68 -289 -81 -921 -82 l-448
0 0 491 0 492 568 -6 c489 -4 576 -7 632 -22z"/>
<path d="M70 1865 l0 -1735 370 0 370 0 2 884 3 884 91 -126 c103 -144 738
-1023 1007 -1395 l179 -247 519 0 c331 0 519 4 519 10 0 8 -87 118 -445 560
-56 69 -184 229 -286 355 -102 127 -303 376 -448 554 -261 323 -262 324 -243
345 11 12 142 167 293 346 150 179 356 424 458 544 102 120 211 249 241 286
30 38 126 152 213 255 87 102 161 193 164 201 4 12 -64 14 -476 14 l-481 0
-433 -542 c-238 -299 -533 -668 -655 -822 l-222 -279 -2 819 -3 819 -367 3
-368 2 0 -1735z"/>
<path d="M7205 3589 c-386 -49 -699 -265 -821 -569 -58 -143 -68 -200 -68
-415 0 -190 1 -204 27 -288 34 -109 71 -184 132 -265 124 -165 353 -293 620
-347 137 -28 267 -34 672 -35 303 0 407 -3 461 -15 251 -52 395 -202 417 -432
18 -184 -85 -392 -231 -466 -106 -53 -64 -51 -1059 -57 l-930 -5 0 -280 0
-280 1060 -3 c724 -2 1080 1 1123 8 172 29 382 122 514 229 272 218 401 545
367 931 -41 479 -347 790 -897 911 -89 20 -138 22 -617 29 -377 5 -531 10
-560 20 -153 48 -253 157 -286 310 -32 151 59 328 208 404 120 61 88 58 1038
66 479 4 871 8 873 8 1 1 2 126 2 277 l0 275 -987 -1 c-544 -1 -1019 -5 -1058
-10z"/>
</g>
</svg>
